<svg xmlns="http://www.w3.org/2000/svg" version="1.1" width="288px" height="288px"><g transform="translate(78,78)"><polygon points="0.0,0.0 30.0,0.0 30.0,30.0 0.0,30.0" style="fill:lightblue;stroke:black;stroke-width:1"/><polygon points="30.0,0.0 30.0,30.0 48.0,48.0 48.0,18.0" style="fill:lightblue;stroke:black;stroke-width:1"/><polygon points="0.0,30.0 18.0,48.0 48.0,48.0 30.0,30.0" style="fill:lightblue;stroke:black;stroke-width:1"/><polygon points="30.0,0.0 60.0,0.0 60.0,30.0 30.0,30.0" style="fill:lightblue;stroke:black;stroke-width:1"/><polygon points="60.0,0.0 60.0,30.0 78.0,48.0 78.0,18.0" style="fill:lightblue;stroke:black;stroke-width:1"/><polygon points="30.0,30.0 48.0,48.0 78.0,48.0 60.0,30.0" style="fill:lightblue;stroke:black;stroke-width:1"/><polygon points="60.0,0.0 90.0,0.0 90.0,30.0 60.0,30.0" style="fill:lightblue;stroke:black;stroke-width:1"/><polygon points="90.0,0.0 90.0,30.0 108.0,48.0 108.0,18.0" style="fill:lightblue;stroke:black;stroke-width:1"/><polygon points="60.0,30.0 78.0,48.0 108.0,48.0 90.0,30.0" style="fill:lightblue;stroke:black;stroke-width:1"/><polygon points="150.0,0.0 180.0,0.0 180.0,30.0 150.0,30.0" style="fill:lightblue;stroke:black;stroke-width:1"/><polygon points="180.0,0.0 180.0,30.0 198.0,48.0 198.0,18.0" style="fill:lightblue;stroke:black;stroke-width:1"/><polygon points="150.0,30.0 168.0,48.0 198.0,48.0 180.0,30.0" style="fill:lightblue;stroke:black;stroke-width:1"/><polygon points="0.0,30.0 30.0,30.0 30.0,60.0 0.0,60.0" style="fill:lightblue;stroke:black;stroke-width:1"/><polygon points="30.0,30.0 30.0,60.0 48.0,78.0 48.0,48.0" style="fill:lightblue;stroke:black;stroke-width:1"/><polygon points="0.0,60.0 18.0,78.0 48.0,78.0 30.0,60.0" style="fill:lightblue;stroke:black;stroke-width:1"/><polygon points="60.0,30.0 90.0,30.0 90.0,60.0 60.0,60.0" style="fill:lightblue;stroke:black;stroke-width:1"/><polygon points="90.0,30.0 90.0,60.0 108.0,78.0 108.0,48.0" style="fill:lightblue;stroke:black;stroke-width:1"/><polygon points="60.0,60.0 78.0,78.0 108.0,78.0 90.0,60.0" style="fill:lightblue;stroke:black;stroke-width:1"/><polygon points="150.0,30.0 180.0,30.0 180.0,60.0 150.0,60.0" style="fill:lightblue;stroke:black;stroke-width:1"/><polygon points="180.0,30.0 180.0,60.0 198.0,78.0 198.0,48.0" style="fill:lightblue;stroke:black;stroke-width:1"/><polygon points="150.0,60.0 168.0,78.0 198.0,78.0 180.0,60.0" style="fill:lightblue;stroke:black;stroke-width:1"/><polygon points="0.0,60.0 30.0,60.0 30.0,90.0 0.0,90.0" style="fill:lightblue;stroke:black;stroke-width:1"/><polygon points="30.0,60.0 30.0,90.0 48.0,108.0 48.0,78.0" style="fill:lightblue;stroke:black;stroke-width:1"/><polygon points="0.0,90.0 18.0,108.0 48.0,108.0 30.0,90.0" style="fill:lightblue;stroke:black;stroke-width:1"/><polygon points="150.0,60.0 180.0,60.0 180.0,90.0 150.0,90.0" style="fill:lightblue;stroke:black;stroke-width:1"/><polygon points="180.0,60.0 180.0,90.0 198.0,108.0 198.0,78.0" style="fill:lightblue;stroke:black;stroke-width:1"/><polygon points="150.0,90.0 168.0,108.0 198.0,108.0 180.0,90.0" style="fill:lightblue;stroke:black;stroke-width:1"/><polygon points="0.0,90.0 30.0,90.0 30.0,120.0 0.0,120.0" style="fill:lightblue;stroke:black;stroke-width:1"/><polygon points="30.0,90.0 30.0,120.0 48.0,138.0 48.0,108.0" style="fill:lightblue;stroke:black;stroke-width:1"/><polygon points="0.0,120.0 18.0,138.0 48.0,138.0 30.0,120.0" style="fill:lightblue;stroke:black;stroke-width:1"/><polygon points="60.0,120.0 90.0,120.0 90.0,150.0 60.0,150.0" style="fill:lightblue;stroke:black;stroke-width:1"/><polygon points="90.0,120.0 90.0,150.0 108.0,168.0 108.0,138.0" style="fill:lightblue;stroke:black;stroke-width:1"/><polygon points="60.0,150.0 78.0,168.0 108.0,168.0 90.0,150.0" style="fill:lightblue;stroke:black;stroke-width:1"/><polygon points="30.0,150.0 60.0,150.0 60.0,180.0 30.0,180.0" style="fill:lightblue;stroke:black;stroke-width:1"/><polygon points="60.0,150.0 60.0,180.0 78.0,198.0 78.0,168.0" style="fill:lightblue;stroke:black;stroke-width:1"/><polygon points="30.0,180.0 48.0,198.0 78.0,198.0 60.0,180.0" style="fill:lightblue;stroke:black;stroke-width:1"/><polygon points="60.0,150.0 90.0,150.0 90.0,180.0 60.0,180.0" style="fill:lightblue;stroke:black;stroke-width:1"/><polygon points="90.0,150.0 90.0,180.0 108.0,198.0 108.0,168.0" style="fill:lightblue;stroke:black;stroke-width:1"/><polygon points="60.0,180.0 78.0,198.0 108.0,198.0 90.0,180.0" style="fill:lightblue;stroke:black;stroke-width:1"/><polygon points="90.0,150.0 120.0,150.0 120.0,180.0 90.0,180.0" style="fill:lightblue;stroke:black;stroke-width:1"/><polygon points="120.0,150.0 120.0,180.0 138.0,198.0 138.0,168.0" style="fill:lightblue;stroke:black;stroke-width:1"/><polygon points="90.0,180.0 108.0,198.0 138.0,198.0 120.0,180.0" style="fill:lightblue;stroke:black;stroke-width:1"/><polygon points="120.0,150.0 150.0,150.0 150.0,180.0 120.0,180.0" style="fill:lightblue;stroke:black;stroke-width:1"/><polygon points="150.0,150.0 150.0,180.0 168.0,198.0 168.0,168.0" style="fill:lightblue;stroke:black;stroke-width:1"/><polygon points="120.0,180.0 138.0,198.0 168.0,198.0 150.0,180.0" style="fill:lightblue;stroke:black;stroke-width:1"/><circle cx="15" cy="15" r="10" style="fill:red;stroke:black;stroke-width:1"/><line x1="60" y1="15" x2="30" y2="15" style="stroke:white;stroke-width:2"/><line x1="60" y1="15" x2="45" y2="30" style="stroke:white;stroke-width:2"/><line x1="60" y1="15" x2="45" y2="0" style="stroke:white;stroke-width:2"/><circle cx="75" cy="15" r="10" style="fill:red;stroke:black;stroke-width:1"/><circle cx="165" cy="15" r="10" style="fill:red;stroke:black;stroke-width:1"/><line x1="15" y1="60" x2="15" y2="30" style="stroke:white;stroke-width:2"/><line x1="15" y1="60" x2="0" y2="45" style="stroke:white;stroke-width:2"/><line x1="15" y1="60" x2="30" y2="45" style="stroke:white;stroke-width:2"/><circle cx="75" cy="45" r="10" style="fill:red;stroke:black;stroke-width:1"/><circle cx="165" cy="45" r="10" style="fill:red;stroke:black;stroke-width:1"/><circle cx="15" cy="75" r="10" style="fill:red;stroke:black;stroke-width:1"/><polygon points="42.0,42.0 72.0,42.0 72.0,72.0 42.0,72.0" style="fill:lightblue;stroke:black;stroke-width:1"/><polygon points="72.0,42.0 72.0,72.0 90.0,90.0 90.0,60.0" style="fill:lightblue;stroke:black;stroke-width:1"/><polygon points="42.0,72.0 60.0,90.0 90.0,90.0 72.0,72.0" style="fill:lightblue;stroke:black;stroke-width:1"/><circle cx="165" cy="75" r="10" style="fill:red;stroke:black;stroke-width:1"/><circle cx="15" cy="105" r="10" style="fill:red;stroke:black;stroke-width:1"/><line x1="66" y1="96" x2="66" y2="81" style="stroke:red;stroke-width:2"/><polygon points="132.0,72.0 162.0,72.0 162.0,94.5 132.0,94.5" style="fill:gray;stroke:black;stroke-width:1"/><polygon points="162.0,72.0 162.0,94.5 180.0,112.5 180.0,90.0" style="fill:gray;stroke:black;stroke-width:1"/><polygon points="132.0,94.5 150.0,112.5 180.0,112.5 162.0,94.5" style="fill:gray;stroke:black;stroke-width:1"/><polygon points="132.0,94.5 162.0,94.5 162.0,102.0 132.0,102.0" style="fill:lime;stroke:black;stroke-width:1"/><polygon points="162.0,94.5 162.0,102.0 180.0,120.0 180.0,112.5" style="fill:lime;stroke:black;stroke-width:1"/><polygon points="132.0,102.0 150.0,120.0 180.0,120.0 162.0,102.0" style="fill:lime;stroke:black;stroke-width:1"/><polygon points="-18.0,102.0 12.0,102.0 12.0,124.5 -18.0,124.5" style="fill:gray;stroke:black;stroke-width:1"/><polygon points="12.0,102.0 12.0,124.5 30.0,142.5 30.0,120.0" style="fill:gray;stroke:black;stroke-width:1"/><polygon points="-18.0,124.5 0.0,142.5 30.0,142.5 12.0,124.5" style="fill:gray;stroke:black;stroke-width:1"/><polygon points="-18.0,124.5 12.0,124.5 12.0,132.0 -18.0,132.0" style="fill:lime;stroke:black;stroke-width:1"/><polygon points="12.0,124.5 12.0,132.0 30.0,150.0 30.0,142.5" style="fill:lime;stroke:black;stroke-width:1"/><polygon points="-18.0,132.0 0.0,150.0 30.0,150.0 12.0,132.0" style="fill:lime;stroke:black;stroke-width:1"/><line x1="75" y1="150" x2="75" y2="120" style="stroke:white;stroke-width:2"/><line x1="75" y1="150" x2="60" y2="135" style="stroke:white;stroke-width:2"/><line x1="75" y1="150" x2="90" y2="135" style="stroke:white;stroke-width:2"/><polygon points="132.0,102.0 162.0,102.0 162.0,132.0 132.0,132.0" style="fill:lightblue;stroke:black;stroke-width:1"/><polygon points="162.0,102.0 162.0,132.0 180.0,150.0 180.0,120.0" style="fill:lightblue;stroke:black;stroke-width:1"/><polygon points="132.0,132.0 150.0,150.0 180.0,150.0 162.0,132.0" style="fill:lightblue;stroke:black;stroke-width:1"/><polygon points="-18.0,132.0 12.0,132.0 12.0,162.0 -18.0,162.0" style="fill:lightblue;stroke:black;stroke-width:1"/><polygon points="12.0,132.0 12.0,162.0 30.0,180.0 30.0,150.0" style="fill:lightblue;stroke:black;stroke-width:1"/><polygon points="-18.0,162.0 0.0,180.0 30.0,180.0 12.0,162.0" style="fill:lightblue;stroke:black;stroke-width:1"/><line x1="60" y1="165" x2="30" y2="165" style="stroke:white;stroke-width:2"/><line x1="60" y1="165" x2="45" y2="180" style="stroke:white;stroke-width:2"/><line x1="60" y1="165" x2="45" y2="150" style="stroke:white;stroke-width:2"/><line x1="90" y1="165" x2="60" y2="165" style="stroke:white;stroke-width:2"/><line x1="90" y1="165" x2="75" y2="180" style="stroke:white;stroke-width:2"/><line x1="90" y1="165" x2="75" y2="150" style="stroke:white;stroke-width:2"/><circle cx="105" cy="165" r="10" style="fill:red;stroke:black;stroke-width:1"/><line x1="150" y1="165" x2="120" y2="165" style="stroke:white;stroke-width:2"/><line x1="150" y1="165" x2="135" y2="180" style="stroke:white;stroke-width:2"/><line x1="150" y1="165" x2="135" y2="150" style="stroke:white;stroke-width:2"/></g></svg>