<svg xmlns="http://www.w3.org/2000/svg" version="1.1" width="246px" height="528px"><g transform="translate(66,78)"><polygon points="120.0,0.0 150.0,0.0 150.0,30.0 120.0,30.0" style="fill-opacity:0.9;stroke-opacity:0.9;fill:blue;stroke:black;stroke-width:1"/><polygon points="150.0,0.0 150.0,30.0 156.0,48.0 156.0,18.0" style="fill-opacity:0.9;stroke-opacity:0.9;fill:blue;stroke:black;stroke-width:1"/><polygon points="120.0,30.0 126.0,48.0 156.0,48.0 150.0,30.0" style="fill-opacity:0.9;stroke-opacity:0.9;fill:blue;stroke:black;stroke-width:1"/><polygon points="0.0,30.0 30.0,30.0 30.0,60.0 0.0,60.0" style="fill-opacity:0.9;stroke-opacity:0.9;fill:blue;stroke:black;stroke-width:1"/><polygon points="30.0,30.0 30.0,60.0 36.0,78.0 36.0,48.0" style="fill-opacity:0.9;stroke-opacity:0.9;fill:blue;stroke:black;stroke-width:1"/><polygon points="0.0,60.0 6.0,78.0 36.0,78.0 30.0,60.0" style="fill-opacity:0.9;stroke-opacity:0.9;fill:blue;stroke:black;stroke-width:1"/><polygon points="30.0,30.0 60.0,30.0 60.0,60.0 30.0,60.0" style="fill-opacity:0.9;stroke-opacity:0.9;fill:white;stroke:black;stroke-width:1"/><polygon points="60.0,30.0 60.0,60.0 63.0,69.0 63.0,39.0" style="fill-opacity:0.9;stroke-opacity:0.9;fill:white;stroke:black;stroke-width:1"/><polygon points="30.0,60.0 33.0,69.0 63.0,69.0 60.0,60.0" style="fill-opacity:0.9;stroke-opacity:0.9;fill:white;stroke:black;stroke-width:1"/><circle cx="81" cy="63" r="10" style="fill-opacity:0.9;stroke-opacity:0.9;fill:red;stroke:none;stroke-width:1"/><line x1="108" y1="54" x2="123" y2="54" style="stroke:red;stroke-width:2"/><polygon points="120.0,30.0 150.0,30.0 150.0,60.0 120.0,60.0" style="fill-opacity:0.9;stroke-opacity:0.9;fill:blue;stroke:black;stroke-width:1"/><polygon points="150.0,30.0 150.0,60.0 156.0,78.0 156.0,48.0" style="fill-opacity:0.9;stroke-opacity:0.9;fill:blue;stroke:black;stroke-width:1"/><polygon points="120.0,60.0 126.0,78.0 156.0,78.0 150.0,60.0" style="fill-opacity:0.9;stroke-opacity:0.9;fill:blue;stroke:black;stroke-width:1"/><polygon points="0.0,60.0 30.0,60.0 30.0,90.0 0.0,90.0" style="fill-opacity:0.9;stroke-opacity:0.9;fill:white;stroke:black;stroke-width:1"/><polygon points="30.0,60.0 30.0,90.0 33.0,99.0 33.0,69.0" style="fill-opacity:0.9;stroke-opacity:0.9;fill:white;stroke:black;stroke-width:1"/><polygon points="0.0,90.0 3.0,99.0 33.0,99.0 30.0,90.0" style="fill-opacity:0.9;stroke-opacity:0.9;fill:white;stroke:black;stroke-width:1"/><polygon points="120.0,60.0 150.0,60.0 150.0,90.0 120.0,90.0" style="fill-opacity:0.9;stroke-opacity:0.9;fill:blue;stroke:black;stroke-width:1"/><polygon points="150.0,60.0 150.0,90.0 156.0,108.0 156.0,78.0" style="fill-opacity:0.9;stroke-opacity:0.9;fill:blue;stroke:black;stroke-width:1"/><polygon points="120.0,90.0 126.0,108.0 156.0,108.0 150.0,90.0" style="fill-opacity:0.9;stroke-opacity:0.9;fill:blue;stroke:black;stroke-width:1"/><circle cx="21" cy="123" r="10" style="fill-opacity:0.9;stroke-opacity:0.9;fill:red;stroke:none;stroke-width:1"/><polygon points="120.0,90.0 150.0,90.0 150.0,120.0 120.0,120.0" style="fill-opacity:0.9;stroke-opacity:0.9;fill:blue;stroke:black;stroke-width:1"/><polygon points="150.0,90.0 150.0,120.0 156.0,138.0 156.0,108.0" style="fill-opacity:0.9;stroke-opacity:0.9;fill:blue;stroke:black;stroke-width:1"/><polygon points="120.0,120.0 126.0,138.0 156.0,138.0 150.0,120.0" style="fill-opacity:0.9;stroke-opacity:0.9;fill:blue;stroke:black;stroke-width:1"/><circle cx="21" cy="153" r="10" style="fill-opacity:0.9;stroke-opacity:0.9;fill:red;stroke:none;stroke-width:1"/><polygon points="120.0,120.0 150.0,120.0 150.0,150.0 120.0,150.0" style="fill-opacity:0.9;stroke-opacity:0.9;fill:blue;stroke:black;stroke-width:1"/><polygon points="150.0,120.0 150.0,150.0 156.0,168.0 156.0,138.0" style="fill-opacity:0.9;stroke-opacity:0.9;fill:blue;stroke:black;stroke-width:1"/><polygon points="120.0,150.0 126.0,168.0 156.0,168.0 150.0,150.0" style="fill-opacity:0.9;stroke-opacity:0.9;fill:blue;stroke:black;stroke-width:1"/><polygon points="0.0,150.0 30.0,150.0 30.0,180.0 0.0,180.0" style="fill-opacity:0.9;stroke-opacity:0.9;fill:blue;stroke:black;stroke-width:1"/><polygon points="30.0,150.0 30.0,180.0 36.0,198.0 36.0,168.0" style="fill-opacity:0.9;stroke-opacity:0.9;fill:blue;stroke:black;stroke-width:1"/><polygon points="0.0,180.0 6.0,198.0 36.0,198.0 30.0,180.0" style="fill-opacity:0.9;stroke-opacity:0.9;fill:blue;stroke:black;stroke-width:1"/><polygon points="30.0,150.0 60.0,150.0 60.0,180.0 30.0,180.0" style="fill-opacity:0.9;stroke-opacity:0.9;fill:blue;stroke:black;stroke-width:1"/><polygon points="60.0,150.0 60.0,180.0 66.0,198.0 66.0,168.0" style="fill-opacity:0.9;stroke-opacity:0.9;fill:blue;stroke:black;stroke-width:1"/><polygon points="30.0,180.0 36.0,198.0 66.0,198.0 60.0,180.0" style="fill-opacity:0.9;stroke-opacity:0.9;fill:blue;stroke:black;stroke-width:1"/><polygon points="60.0,150.0 90.0,150.0 90.0,180.0 60.0,180.0" style="fill-opacity:0.9;stroke-opacity:0.9;fill:blue;stroke:black;stroke-width:1"/><polygon points="90.0,150.0 90.0,180.0 96.0,198.0 96.0,168.0" style="fill-opacity:0.9;stroke-opacity:0.9;fill:blue;stroke:black;stroke-width:1"/><polygon points="60.0,180.0 66.0,198.0 96.0,198.0 90.0,180.0" style="fill-opacity:0.9;stroke-opacity:0.9;fill:blue;stroke:black;stroke-width:1"/><polygon points="120.0,150.0 150.0,150.0 150.0,180.0 120.0,180.0" style="fill-opacity:0.9;stroke-opacity:0.9;fill:blue;stroke:black;stroke-width:1"/><polygon points="150.0,150.0 150.0,180.0 156.0,198.0 156.0,168.0" style="fill-opacity:0.9;stroke-opacity:0.9;fill:blue;stroke:black;stroke-width:1"/><polygon points="120.0,180.0 126.0,198.0 156.0,198.0 150.0,180.0" style="fill-opacity:0.9;stroke-opacity:0.9;fill:blue;stroke:black;stroke-width:1"/><polygon points="0.0,180.0 30.0,180.0 30.0,210.0 0.0,210.0" style="fill-opacity:0.9;stroke-opacity:0.9;fill:blue;stroke:black;stroke-width:1"/><polygon points="30.0,180.0 30.0,210.0 36.0,228.0 36.0,198.0" style="fill-opacity:0.9;stroke-opacity:0.9;fill:blue;stroke:black;stroke-width:1"/><polygon points="0.0,210.0 6.0,228.0 36.0,228.0 30.0,210.0" style="fill-opacity:0.9;stroke-opacity:0.9;fill:blue;stroke:black;stroke-width:1"/><polygon points="60.0,180.0 90.0,180.0 90.0,210.0 60.0,210.0" style="fill-opacity:0.9;stroke-opacity:0.9;fill:blue;stroke:black;stroke-width:1"/><polygon points="90.0,180.0 90.0,210.0 96.0,228.0 96.0,198.0" style="fill-opacity:0.9;stroke-opacity:0.9;fill:blue;stroke:black;stroke-width:1"/><polygon points="60.0,210.0 66.0,228.0 96.0,228.0 90.0,210.0" style="fill-opacity:0.9;stroke-opacity:0.9;fill:blue;stroke:black;stroke-width:1"/><polygon points="0.0,210.0 30.0,210.0 30.0,240.0 0.0,240.0" style="fill-opacity:0.9;stroke-opacity:0.9;fill:blue;stroke:black;stroke-width:1"/><polygon points="30.0,210.0 30.0,240.0 36.0,258.0 36.0,228.0" style="fill-opacity:0.9;stroke-opacity:0.9;fill:blue;stroke:black;stroke-width:1"/><polygon points="0.0,240.0 6.0,258.0 36.0,258.0 30.0,240.0" style="fill-opacity:0.9;stroke-opacity:0.9;fill:blue;stroke:black;stroke-width:1"/><polygon points="60.0,210.0 90.0,210.0 90.0,240.0 60.0,240.0" style="fill-opacity:0.9;stroke-opacity:0.9;fill:blue;stroke:black;stroke-width:1"/><polygon points="90.0,210.0 90.0,240.0 96.0,258.0 96.0,228.0" style="fill-opacity:0.9;stroke-opacity:0.9;fill:blue;stroke:black;stroke-width:1"/><polygon points="60.0,240.0 66.0,258.0 96.0,258.0 90.0,240.0" style="fill-opacity:0.9;stroke-opacity:0.9;fill:blue;stroke:black;stroke-width:1"/><polygon points="120.0,210.0 150.0,210.0 150.0,240.0 120.0,240.0" style="fill-opacity:0.9;stroke-opacity:0.9;fill:blue;stroke:black;stroke-width:1"/><polygon points="150.0,210.0 150.0,240.0 156.0,258.0 156.0,228.0" style="fill-opacity:0.9;stroke-opacity:0.9;fill:blue;stroke:black;stroke-width:1"/><polygon points="120.0,240.0 126.0,258.0 156.0,258.0 150.0,240.0" style="fill-opacity:0.9;stroke-opacity:0.9;fill:blue;stroke:black;stroke-width:1"/><polygon points="0.0,240.0 30.0,240.0 30.0,270.0 0.0,270.0" style="fill-opacity:0.9;stroke-opacity:0.9;fill:blue;stroke:black;stroke-width:1"/><polygon points="30.0,240.0 30.0,270.0 36.0,288.0 36.0,258.0" style="fill-opacity:0.9;stroke-opacity:0.9;fill:blue;stroke:black;stroke-width:1"/><polygon points="0.0,270.0 6.0,288.0 36.0,288.0 30.0,270.0" style="fill-opacity:0.9;stroke-opacity:0.9;fill:blue;stroke:black;stroke-width:1"/><polygon points="30.0,240.0 60.0,240.0 60.0,270.0 30.0,270.0" style="fill-opacity:0.9;stroke-opacity:0.9;fill:blue;stroke:black;stroke-width:1"/><polygon points="60.0,240.0 60.0,270.0 66.0,288.0 66.0,258.0" style="fill-opacity:0.9;stroke-opacity:0.9;fill:blue;stroke:black;stroke-width:1"/><polygon points="30.0,270.0 36.0,288.0 66.0,288.0 60.0,270.0" style="fill-opacity:0.9;stroke-opacity:0.9;fill:blue;stroke:black;stroke-width:1"/><polygon points="90.0,240.0 120.0,240.0 120.0,270.0 90.0,270.0" style="fill-opacity:0.9;stroke-opacity:0.9;fill:blue;stroke:black;stroke-width:1"/><polygon points="120.0,240.0 120.0,270.0 126.0,288.0 126.0,258.0" style="fill-opacity:0.9;stroke-opacity:0.9;fill:blue;stroke:black;stroke-width:1"/><polygon points="90.0,270.0 96.0,288.0 126.0,288.0 120.0,270.0" style="fill-opacity:0.9;stroke-opacity:0.9;fill:blue;stroke:black;stroke-width:1"/><polygon points="120.0,240.0 150.0,240.0 150.0,270.0 120.0,270.0" style="fill-opacity:0.9;stroke-opacity:0.9;fill:blue;stroke:black;stroke-width:1"/><polygon points="150.0,240.0 150.0,270.0 156.0,288.0 156.0,258.0" style="fill-opacity:0.9;stroke-opacity:0.9;fill:blue;stroke:black;stroke-width:1"/><polygon points="120.0,270.0 126.0,288.0 156.0,288.0 150.0,270.0" style="fill-opacity:0.9;stroke-opacity:0.9;fill:blue;stroke:black;stroke-width:1"/><polygon points="0.0,270.0 30.0,270.0 30.0,300.0 0.0,300.0" style="fill-opacity:0.9;stroke-opacity:0.9;fill:blue;stroke:black;stroke-width:1"/><polygon points="30.0,270.0 30.0,300.0 36.0,318.0 36.0,288.0" style="fill-opacity:0.9;stroke-opacity:0.9;fill:blue;stroke:black;stroke-width:1"/><polygon points="0.0,300.0 6.0,318.0 36.0,318.0 30.0,300.0" style="fill-opacity:0.9;stroke-opacity:0.9;fill:blue;stroke:black;stroke-width:1"/><polygon points="120.0,270.0 150.0,270.0 150.0,300.0 120.0,300.0" style="fill-opacity:0.9;stroke-opacity:0.9;fill:blue;stroke:black;stroke-width:1"/><polygon points="150.0,270.0 150.0,300.0 156.0,318.0 156.0,288.0" style="fill-opacity:0.9;stroke-opacity:0.9;fill:blue;stroke:black;stroke-width:1"/><polygon points="120.0,300.0 126.0,318.0 156.0,318.0 150.0,300.0" style="fill-opacity:0.9;stroke-opacity:0.9;fill:blue;stroke:black;stroke-width:1"/><polygon points="0.0,300.0 30.0,300.0 30.0,330.0 0.0,330.0" style="fill-opacity:0.9;stroke-opacity:0.9;fill:blue;stroke:black;stroke-width:1"/><polygon points="30.0,300.0 30.0,330.0 36.0,348.0 36.0,318.0" style="fill-opacity:0.9;stroke-opacity:0.9;fill:blue;stroke:black;stroke-width:1"/><polygon points="0.0,330.0 6.0,348.0 36.0,348.0 30.0,330.0" style="fill-opacity:0.9;stroke-opacity:0.9;fill:blue;stroke:black;stroke-width:1"/><polygon points="120.0,300.0 150.0,300.0 150.0,330.0 120.0,330.0" style="fill-opacity:0.9;stroke-opacity:0.9;fill:blue;stroke:black;stroke-width:1"/><polygon points="150.0,300.0 150.0,330.0 156.0,348.0 156.0,318.0" style="fill-opacity:0.9;stroke-opacity:0.9;fill:blue;stroke:black;stroke-width:1"/><polygon points="120.0,330.0 126.0,348.0 156.0,348.0 150.0,330.0" style="fill-opacity:0.9;stroke-opacity:0.9;fill:blue;stroke:black;stroke-width:1"/><polygon points="0.0,360.0 30.0,360.0 30.0,390.0 0.0,390.0" style="fill-opacity:0.9;stroke-opacity:0.9;fill:blue;stroke:black;stroke-width:1"/><polygon points="30.0,360.0 30.0,390.0 36.0,408.0 36.0,378.0" style="fill-opacity:0.9;stroke-opacity:0.9;fill:blue;stroke:black;stroke-width:1"/><polygon points="0.0,390.0 6.0,408.0 36.0,408.0 30.0,390.0" style="fill-opacity:0.9;stroke-opacity:0.9;fill:blue;stroke:black;stroke-width:1"/><polygon points="30.0,360.0 60.0,360.0 60.0,390.0 30.0,390.0" style="fill-opacity:0.9;stroke-opacity:0.9;fill:blue;stroke:black;stroke-width:1"/><polygon points="60.0,360.0 60.0,390.0 66.0,408.0 66.0,378.0" style="fill-opacity:0.9;stroke-opacity:0.9;fill:blue;stroke:black;stroke-width:1"/><polygon points="30.0,390.0 36.0,408.0 66.0,408.0 60.0,390.0" style="fill-opacity:0.9;stroke-opacity:0.9;fill:blue;stroke:black;stroke-width:1"/><polygon points="60.0,360.0 90.0,360.0 90.0,390.0 60.0,390.0" style="fill-opacity:0.9;stroke-opacity:0.9;fill:blue;stroke:black;stroke-width:1"/><polygon points="90.0,360.0 90.0,390.0 96.0,408.0 96.0,378.0" style="fill-opacity:0.9;stroke-opacity:0.9;fill:blue;stroke:black;stroke-width:1"/><polygon points="60.0,390.0 66.0,408.0 96.0,408.0 90.0,390.0" style="fill-opacity:0.9;stroke-opacity:0.9;fill:blue;stroke:black;stroke-width:1"/><polygon points="90.0,360.0 120.0,360.0 120.0,390.0 90.0,390.0" style="fill-opacity:0.9;stroke-opacity:0.9;fill:blue;stroke:black;stroke-width:1"/><polygon points="120.0,360.0 120.0,390.0 126.0,408.0 126.0,378.0" style="fill-opacity:0.9;stroke-opacity:0.9;fill:blue;stroke:black;stroke-width:1"/><polygon points="90.0,390.0 96.0,408.0 126.0,408.0 120.0,390.0" style="fill-opacity:0.9;stroke-opacity:0.9;fill:blue;stroke:black;stroke-width:1"/><polygon points="120.0,360.0 150.0,360.0 150.0,390.0 120.0,390.0" style="fill-opacity:0.9;stroke-opacity:0.9;fill:blue;stroke:black;stroke-width:1"/><polygon points="150.0,360.0 150.0,390.0 156.0,408.0 156.0,378.0" style="fill-opacity:0.9;stroke-opacity:0.9;fill:blue;stroke:black;stroke-width:1"/><polygon points="120.0,390.0 126.0,408.0 156.0,408.0 150.0,390.0" style="fill-opacity:0.9;stroke-opacity:0.9;fill:blue;stroke:black;stroke-width:1"/><polygon points="120.0,390.0 150.0,390.0 150.0,420.0 120.0,420.0" style="fill-opacity:0.9;stroke-opacity:0.9;fill:blue;stroke:black;stroke-width:1"/><polygon points="150.0,390.0 150.0,420.0 156.0,438.0 156.0,408.0" style="fill-opacity:0.9;stroke-opacity:0.9;fill:blue;stroke:black;stroke-width:1"/><polygon points="120.0,420.0 126.0,438.0 156.0,438.0 150.0,420.0" style="fill-opacity:0.9;stroke-opacity:0.9;fill:blue;stroke:black;stroke-width:1"/><circle cx="135" cy="15" r="10" style="fill-opacity:0.9;stroke-opacity:0.9;fill:red;stroke:none;stroke-width:1"/><circle cx="15" cy="45" r="10" style="fill-opacity:0.9;stroke-opacity:0.9;fill:red;stroke:none;stroke-width:1"/><circle cx="45" cy="45" r="10" style="fill-opacity:0.9;stroke-opacity:0.9;fill:red;stroke:none;stroke-width:1"/><polygon points="54.0,12.0 84.0,12.0 84.0,42.0 54.0,42.0" style="fill-opacity:0.9;stroke-opacity:0.9;fill:white;stroke:black;stroke-width:1"/><polygon points="84.0,12.0 84.0,42.0 87.0,51.0 87.0,21.0" style="fill-opacity:0.9;stroke-opacity:0.9;fill:white;stroke:black;stroke-width:1"/><polygon points="54.0,42.0 57.0,51.0 87.0,51.0 84.0,42.0" style="fill-opacity:0.9;stroke-opacity:0.9;fill:white;stroke:black;stroke-width:1"/><circle cx="135" cy="45" r="10" style="fill-opacity:0.9;stroke-opacity:0.9;fill:red;stroke:none;stroke-width:1"/><circle cx="15" cy="75" r="10" style="fill-opacity:0.9;stroke-opacity:0.9;fill:red;stroke:none;stroke-width:1"/><circle cx="135" cy="75" r="10" style="fill-opacity:0.9;stroke-opacity:0.9;fill:red;stroke:none;stroke-width:1"/><polygon points="-6.0,72.0 24.0,72.0 24.0,102.0 -6.0,102.0" style="fill-opacity:0.9;stroke-opacity:0.9;fill:blue;stroke:black;stroke-width:1"/><polygon points="24.0,72.0 24.0,102.0 30.0,120.0 30.0,90.0" style="fill-opacity:0.9;stroke-opacity:0.9;fill:blue;stroke:black;stroke-width:1"/><polygon points="-6.0,102.0 0.0,120.0 30.0,120.0 24.0,102.0" style="fill-opacity:0.9;stroke-opacity:0.9;fill:blue;stroke:black;stroke-width:1"/><circle cx="135" cy="105" r="10" style="fill-opacity:0.9;stroke-opacity:0.9;fill:red;stroke:none;stroke-width:1"/><polygon points="-6.0,102.0 24.0,102.0 24.0,132.0 -6.0,132.0" style="fill-opacity:0.9;stroke-opacity:0.9;fill:white;stroke:black;stroke-width:1"/><polygon points="24.0,102.0 24.0,132.0 27.0,141.0 27.0,111.0" style="fill-opacity:0.9;stroke-opacity:0.9;fill:white;stroke:black;stroke-width:1"/><polygon points="-6.0,132.0 -3.0,141.0 27.0,141.0 24.0,132.0" style="fill-opacity:0.9;stroke-opacity:0.9;fill:white;stroke:black;stroke-width:1"/><circle cx="135" cy="135" r="10" style="fill-opacity:0.9;stroke-opacity:0.9;fill:red;stroke:none;stroke-width:1"/><circle cx="15" cy="165" r="10" style="fill-opacity:0.9;stroke-opacity:0.9;fill:red;stroke:none;stroke-width:1"/><line x1="60" y1="165" x2="30" y2="165" style="stroke:white;stroke-width:2"/><line x1="60" y1="165" x2="45" y2="180" style="stroke:white;stroke-width:2"/><line x1="60" y1="165" x2="45" y2="150" style="stroke:white;stroke-width:2"/><circle cx="75" cy="165" r="10" style="fill-opacity:0.9;stroke-opacity:0.9;fill:red;stroke:none;stroke-width:1"/><line x1="102" y1="156" x2="117" y2="156" style="stroke:red;stroke-width:2"/><polygon points="114.0,132.0 144.0,132.0 144.0,162.0 114.0,162.0" style="fill-opacity:0.9;stroke-opacity:0.9;fill:blue;stroke:black;stroke-width:1"/><polygon points="144.0,132.0 144.0,162.0 150.0,180.0 150.0,150.0" style="fill-opacity:0.9;stroke-opacity:0.9;fill:blue;stroke:black;stroke-width:1"/><polygon points="114.0,162.0 120.0,180.0 150.0,180.0 144.0,162.0" style="fill-opacity:0.9;stroke-opacity:0.9;fill:blue;stroke:black;stroke-width:1"/><line x1="15" y1="210" x2="15" y2="180" style="stroke:white;stroke-width:2"/><line x1="15" y1="210" x2="0" y2="195" style="stroke:white;stroke-width:2"/><line x1="15" y1="210" x2="30" y2="195" style="stroke:white;stroke-width:2"/><circle cx="75" cy="195" r="10" style="fill-opacity:0.9;stroke-opacity:0.9;fill:red;stroke:none;stroke-width:1"/><line x1="132" y1="186" x2="132" y2="171" style="stroke:red;stroke-width:2"/><circle cx="15" cy="225" r="10" style="fill-opacity:0.9;stroke-opacity:0.9;fill:red;stroke:none;stroke-width:1"/><polygon points="54.0,192.0 84.0,192.0 84.0,222.0 54.0,222.0" style="fill-opacity:0.9;stroke-opacity:0.9;fill:blue;stroke:black;stroke-width:1"/><polygon points="84.0,192.0 84.0,222.0 90.0,240.0 90.0,210.0" style="fill-opacity:0.9;stroke-opacity:0.9;fill:blue;stroke:black;stroke-width:1"/><polygon points="54.0,222.0 60.0,240.0 90.0,240.0 84.0,222.0" style="fill-opacity:0.9;stroke-opacity:0.9;fill:blue;stroke:black;stroke-width:1"/><circle cx="135" cy="225" r="10" style="fill-opacity:0.9;stroke-opacity:0.9;fill:red;stroke:none;stroke-width:1"/><circle cx="15" cy="255" r="10" style="fill-opacity:0.9;stroke-opacity:0.9;fill:red;stroke:none;stroke-width:1"/><circle cx="45" cy="255" r="10" style="fill-opacity:0.9;stroke-opacity:0.9;fill:red;stroke:none;stroke-width:1"/><line x1="72" y1="246" x2="72" y2="231" style="stroke:red;stroke-width:2"/><circle cx="105" cy="255" r="10" style="fill-opacity:0.9;stroke-opacity:0.9;fill:red;stroke:none;stroke-width:1"/><circle cx="135" cy="255" r="10" style="fill-opacity:0.9;stroke-opacity:0.9;fill:red;stroke:none;stroke-width:1"/><circle cx="15" cy="285" r="10" style="fill-opacity:0.9;stroke-opacity:0.9;fill:red;stroke:none;stroke-width:1"/><circle cx="135" cy="285" r="10" style="fill-opacity:0.9;stroke-opacity:0.9;fill:red;stroke:none;stroke-width:1"/><polygon points="-6.0,282.0 24.0,282.0 24.0,312.0 -6.0,312.0" style="fill-opacity:0.9;stroke-opacity:0.9;fill:blue;stroke:black;stroke-width:1"/><polygon points="24.0,282.0 24.0,312.0 30.0,330.0 30.0,300.0" style="fill-opacity:0.9;stroke-opacity:0.9;fill:blue;stroke:black;stroke-width:1"/><polygon points="-6.0,312.0 0.0,330.0 30.0,330.0 24.0,312.0" style="fill-opacity:0.9;stroke-opacity:0.9;fill:blue;stroke:black;stroke-width:1"/><polygon points="114.0,282.0 144.0,282.0 144.0,312.0 114.0,312.0" style="fill-opacity:0.9;stroke-opacity:0.9;fill:blue;stroke:black;stroke-width:1"/><polygon points="144.0,282.0 144.0,312.0 150.0,330.0 150.0,300.0" style="fill-opacity:0.9;stroke-opacity:0.9;fill:blue;stroke:black;stroke-width:1"/><polygon points="114.0,312.0 120.0,330.0 150.0,330.0 144.0,312.0" style="fill-opacity:0.9;stroke-opacity:0.9;fill:blue;stroke:black;stroke-width:1"/><line x1="12" y1="336" x2="12" y2="321" style="stroke:red;stroke-width:2"/><line x1="132" y1="336" x2="132" y2="321" style="stroke:red;stroke-width:2"/><circle cx="15" cy="375" r="10" style="fill-opacity:0.9;stroke-opacity:0.9;fill:red;stroke:none;stroke-width:1"/><circle cx="45" cy="375" r="10" style="fill-opacity:0.9;stroke-opacity:0.9;fill:red;stroke:none;stroke-width:1"/><circle cx="75" cy="375" r="10" style="fill-opacity:0.9;stroke-opacity:0.9;fill:red;stroke:none;stroke-width:1"/><circle cx="105" cy="375" r="10" style="fill-opacity:0.9;stroke-opacity:0.9;fill:red;stroke:none;stroke-width:1"/><circle cx="135" cy="375" r="10" style="fill-opacity:0.9;stroke-opacity:0.9;fill:red;stroke:none;stroke-width:1"/><circle cx="135" cy="405" r="10" style="fill-opacity:0.9;stroke-opacity:0.9;fill:red;stroke:none;stroke-width:1"/></g></svg>