<svg xmlns="http://www.w3.org/2000/svg" version="1.1" width="396px" height="288px"><defs><linearGradient id="lamp" x1="0%" y1="0%" x2="100%" y2="0%"><stop offset="0%" style="stop-color:yellow"/><stop offset="100%" style="stop-color:red"/></linearGradient></defs><g transform="translate(66,78)"><polygon points="0.0,0.0 30.0,0.0 30.0,30.0 0.0,30.0" style="fill-opacity:0.9;stroke-opacity:0.9;fill:blue;stroke:black;stroke-width:1"/><polygon points="30.0,0.0 30.0,30.0 36.0,48.0 36.0,18.0" style="fill-opacity:0.9;stroke-opacity:0.9;fill:blue;stroke:black;stroke-width:1"/><polygon points="0.0,30.0 6.0,48.0 36.0,48.0 30.0,30.0" style="fill-opacity:0.9;stroke-opacity:0.9;fill:blue;stroke:black;stroke-width:1"/>
<polygon points="30.0,0.0 60.0,0.0 60.0,30.0 30.0,30.0" style="fill-opacity:0.9;stroke-opacity:0.9;fill:blue;stroke:black;stroke-width:1"/><polygon points="60.0,0.0 60.0,30.0 66.0,48.0 66.0,18.0" style="fill-opacity:0.9;stroke-opacity:0.9;fill:blue;stroke:black;stroke-width:1"/><polygon points="30.0,30.0 36.0,48.0 66.0,48.0 60.0,30.0" style="fill-opacity:0.9;stroke-opacity:0.9;fill:blue;stroke:black;stroke-width:1"/>
<polygon points="60.0,0.0 90.0,0.0 90.0,30.0 60.0,30.0" style="fill-opacity:0.9;stroke-opacity:0.9;fill:blue;stroke:black;stroke-width:1"/><polygon points="90.0,0.0 90.0,30.0 96.0,48.0 96.0,18.0" style="fill-opacity:0.9;stroke-opacity:0.9;fill:blue;stroke:black;stroke-width:1"/><polygon points="60.0,30.0 66.0,48.0 96.0,48.0 90.0,30.0" style="fill-opacity:0.9;stroke-opacity:0.9;fill:blue;stroke:black;stroke-width:1"/>
<polygon points="90.0,0.0 120.0,0.0 120.0,30.0 90.0,30.0" style="fill-opacity:0.9;stroke-opacity:0.9;fill:blue;stroke:black;stroke-width:1"/><polygon points="120.0,0.0 120.0,30.0 126.0,48.0 126.0,18.0" style="fill-opacity:0.9;stroke-opacity:0.9;fill:blue;stroke:black;stroke-width:1"/><polygon points="90.0,30.0 96.0,48.0 126.0,48.0 120.0,30.0" style="fill-opacity:0.9;stroke-opacity:0.9;fill:blue;stroke:black;stroke-width:1"/>
<polygon points="120.0,0.0 150.0,0.0 150.0,30.0 120.0,30.0" style="fill-opacity:0.9;stroke-opacity:0.9;fill:blue;stroke:black;stroke-width:1"/><polygon points="150.0,0.0 150.0,30.0 156.0,48.0 156.0,18.0" style="fill-opacity:0.9;stroke-opacity:0.9;fill:blue;stroke:black;stroke-width:1"/><polygon points="120.0,30.0 126.0,48.0 156.0,48.0 150.0,30.0" style="fill-opacity:0.9;stroke-opacity:0.9;fill:blue;stroke:black;stroke-width:1"/>
<polygon points="150.0,0.0 180.0,0.0 180.0,30.0 150.0,30.0" style="fill-opacity:0.9;stroke-opacity:0.9;fill:blue;stroke:black;stroke-width:1"/><polygon points="180.0,0.0 180.0,30.0 186.0,48.0 186.0,18.0" style="fill-opacity:0.9;stroke-opacity:0.9;fill:blue;stroke:black;stroke-width:1"/><polygon points="150.0,30.0 156.0,48.0 186.0,48.0 180.0,30.0" style="fill-opacity:0.9;stroke-opacity:0.9;fill:blue;stroke:black;stroke-width:1"/>
<polygon points="180.0,0.0 210.0,0.0 210.0,30.0 180.0,30.0" style="fill-opacity:0.9;stroke-opacity:0.9;fill:blue;stroke:black;stroke-width:1"/><polygon points="210.0,0.0 210.0,30.0 216.0,48.0 216.0,18.0" style="fill-opacity:0.9;stroke-opacity:0.9;fill:blue;stroke:black;stroke-width:1"/><polygon points="180.0,30.0 186.0,48.0 216.0,48.0 210.0,30.0" style="fill-opacity:0.9;stroke-opacity:0.9;fill:blue;stroke:black;stroke-width:1"/>
<polygon points="210.0,0.0 240.0,0.0 240.0,30.0 210.0,30.0" style="fill-opacity:0.9;stroke-opacity:0.9;fill:blue;stroke:black;stroke-width:1"/><polygon points="240.0,0.0 240.0,30.0 246.0,48.0 246.0,18.0" style="fill-opacity:0.9;stroke-opacity:0.9;fill:blue;stroke:black;stroke-width:1"/><polygon points="210.0,30.0 216.0,48.0 246.0,48.0 240.0,30.0" style="fill-opacity:0.9;stroke-opacity:0.9;fill:blue;stroke:black;stroke-width:1"/>
<polygon points="240.0,0.0 270.0,0.0 270.0,30.0 240.0,30.0" style="fill-opacity:0.9;stroke-opacity:0.9;fill:blue;stroke:black;stroke-width:1"/><polygon points="270.0,0.0 270.0,30.0 276.0,48.0 276.0,18.0" style="fill-opacity:0.9;stroke-opacity:0.9;fill:blue;stroke:black;stroke-width:1"/><polygon points="240.0,30.0 246.0,48.0 276.0,48.0 270.0,30.0" style="fill-opacity:0.9;stroke-opacity:0.9;fill:blue;stroke:black;stroke-width:1"/>
<polygon points="270.0,0.0 300.0,0.0 300.0,30.0 270.0,30.0" style="fill-opacity:0.9;stroke-opacity:0.9;fill:blue;stroke:black;stroke-width:1"/><polygon points="300.0,0.0 300.0,30.0 306.0,48.0 306.0,18.0" style="fill-opacity:0.9;stroke-opacity:0.9;fill:blue;stroke:black;stroke-width:1"/><polygon points="270.0,30.0 276.0,48.0 306.0,48.0 300.0,30.0" style="fill-opacity:0.9;stroke-opacity:0.9;fill:blue;stroke:black;stroke-width:1"/>
<polygon points="0.0,30.0 30.0,30.0 30.0,60.0 0.0,60.0" style="fill-opacity:0.9;stroke-opacity:0.9;fill:blue;stroke:black;stroke-width:1"/><polygon points="30.0,30.0 30.0,60.0 36.0,78.0 36.0,48.0" style="fill-opacity:0.9;stroke-opacity:0.9;fill:blue;stroke:black;stroke-width:1"/><polygon points="0.0,60.0 6.0,78.0 36.0,78.0 30.0,60.0" style="fill-opacity:0.9;stroke-opacity:0.9;fill:blue;stroke:black;stroke-width:1"/>
<polygon points="30.0,30.0 60.0,30.0 60.0,60.0 30.0,60.0" style="fill-opacity:0.9;stroke-opacity:0.9;fill:blue;stroke:black;stroke-width:1"/><polygon points="60.0,30.0 60.0,60.0 66.0,78.0 66.0,48.0" style="fill-opacity:0.9;stroke-opacity:0.9;fill:blue;stroke:black;stroke-width:1"/><polygon points="30.0,60.0 36.0,78.0 66.0,78.0 60.0,60.0" style="fill-opacity:0.9;stroke-opacity:0.9;fill:blue;stroke:black;stroke-width:1"/>
<polygon points="60.0,30.0 90.0,30.0 90.0,60.0 60.0,60.0" style="fill-opacity:0.9;stroke-opacity:0.9;fill:blue;stroke:black;stroke-width:1"/><polygon points="90.0,30.0 90.0,60.0 96.0,78.0 96.0,48.0" style="fill-opacity:0.9;stroke-opacity:0.9;fill:blue;stroke:black;stroke-width:1"/><polygon points="60.0,60.0 66.0,78.0 96.0,78.0 90.0,60.0" style="fill-opacity:0.9;stroke-opacity:0.9;fill:blue;stroke:black;stroke-width:1"/>
<polygon points="90.0,30.0 120.0,30.0 120.0,60.0 90.0,60.0" style="fill-opacity:0.9;stroke-opacity:0.9;fill:blue;stroke:black;stroke-width:1"/><polygon points="120.0,30.0 120.0,60.0 126.0,78.0 126.0,48.0" style="fill-opacity:0.9;stroke-opacity:0.9;fill:blue;stroke:black;stroke-width:1"/><polygon points="90.0,60.0 96.0,78.0 126.0,78.0 120.0,60.0" style="fill-opacity:0.9;stroke-opacity:0.9;fill:blue;stroke:black;stroke-width:1"/>
<polygon points="120.0,30.0 150.0,30.0 150.0,60.0 120.0,60.0" style="fill-opacity:0.9;stroke-opacity:0.9;fill:blue;stroke:black;stroke-width:1"/><polygon points="150.0,30.0 150.0,60.0 156.0,78.0 156.0,48.0" style="fill-opacity:0.9;stroke-opacity:0.9;fill:blue;stroke:black;stroke-width:1"/><polygon points="120.0,60.0 126.0,78.0 156.0,78.0 150.0,60.0" style="fill-opacity:0.9;stroke-opacity:0.9;fill:blue;stroke:black;stroke-width:1"/>
<polygon points="150.0,30.0 180.0,30.0 180.0,60.0 150.0,60.0" style="fill-opacity:0.9;stroke-opacity:0.9;fill:blue;stroke:black;stroke-width:1"/><polygon points="180.0,30.0 180.0,60.0 186.0,78.0 186.0,48.0" style="fill-opacity:0.9;stroke-opacity:0.9;fill:blue;stroke:black;stroke-width:1"/><polygon points="150.0,60.0 156.0,78.0 186.0,78.0 180.0,60.0" style="fill-opacity:0.9;stroke-opacity:0.9;fill:blue;stroke:black;stroke-width:1"/>
<polygon points="180.0,30.0 210.0,30.0 210.0,60.0 180.0,60.0" style="fill-opacity:0.9;stroke-opacity:0.9;fill:blue;stroke:black;stroke-width:1"/><polygon points="210.0,30.0 210.0,60.0 216.0,78.0 216.0,48.0" style="fill-opacity:0.9;stroke-opacity:0.9;fill:blue;stroke:black;stroke-width:1"/><polygon points="180.0,60.0 186.0,78.0 216.0,78.0 210.0,60.0" style="fill-opacity:0.9;stroke-opacity:0.9;fill:blue;stroke:black;stroke-width:1"/>
<polygon points="210.0,30.0 240.0,30.0 240.0,60.0 210.0,60.0" style="fill-opacity:0.9;stroke-opacity:0.9;fill:blue;stroke:black;stroke-width:1"/><polygon points="240.0,30.0 240.0,60.0 246.0,78.0 246.0,48.0" style="fill-opacity:0.9;stroke-opacity:0.9;fill:blue;stroke:black;stroke-width:1"/><polygon points="210.0,60.0 216.0,78.0 246.0,78.0 240.0,60.0" style="fill-opacity:0.9;stroke-opacity:0.9;fill:blue;stroke:black;stroke-width:1"/>
<polygon points="240.0,30.0 270.0,30.0 270.0,60.0 240.0,60.0" style="fill-opacity:0.9;stroke-opacity:0.9;fill:blue;stroke:black;stroke-width:1"/><polygon points="270.0,30.0 270.0,60.0 276.0,78.0 276.0,48.0" style="fill-opacity:0.9;stroke-opacity:0.9;fill:blue;stroke:black;stroke-width:1"/><polygon points="240.0,60.0 246.0,78.0 276.0,78.0 270.0,60.0" style="fill-opacity:0.9;stroke-opacity:0.9;fill:blue;stroke:black;stroke-width:1"/>
<polygon points="270.0,30.0 300.0,30.0 300.0,60.0 270.0,60.0" style="fill-opacity:0.9;stroke-opacity:0.9;fill:blue;stroke:black;stroke-width:1"/><polygon points="300.0,30.0 300.0,60.0 306.0,78.0 306.0,48.0" style="fill-opacity:0.9;stroke-opacity:0.9;fill:blue;stroke:black;stroke-width:1"/><polygon points="270.0,60.0 276.0,78.0 306.0,78.0 300.0,60.0" style="fill-opacity:0.9;stroke-opacity:0.9;fill:blue;stroke:black;stroke-width:1"/>
<polygon points="0.0,60.0 30.0,60.0 30.0,90.0 0.0,90.0" style="fill-opacity:0.9;stroke-opacity:0.9;fill:blue;stroke:black;stroke-width:1"/><polygon points="30.0,60.0 30.0,90.0 36.0,108.0 36.0,78.0" style="fill-opacity:0.9;stroke-opacity:0.9;fill:blue;stroke:black;stroke-width:1"/><polygon points="0.0,90.0 6.0,108.0 36.0,108.0 30.0,90.0" style="fill-opacity:0.9;stroke-opacity:0.9;fill:blue;stroke:black;stroke-width:1"/>
<polygon points="30.0,60.0 60.0,60.0 60.0,90.0 30.0,90.0" style="fill-opacity:0.9;stroke-opacity:0.9;fill:blue;stroke:black;stroke-width:1"/><polygon points="60.0,60.0 60.0,90.0 66.0,108.0 66.0,78.0" style="fill-opacity:0.9;stroke-opacity:0.9;fill:blue;stroke:black;stroke-width:1"/><polygon points="30.0,90.0 36.0,108.0 66.0,108.0 60.0,90.0" style="fill-opacity:0.9;stroke-opacity:0.9;fill:blue;stroke:black;stroke-width:1"/>
<polygon points="60.0,60.0 90.0,60.0 90.0,90.0 60.0,90.0" style="fill-opacity:0.9;stroke-opacity:0.9;fill:blue;stroke:black;stroke-width:1"/><polygon points="90.0,60.0 90.0,90.0 96.0,108.0 96.0,78.0" style="fill-opacity:0.9;stroke-opacity:0.9;fill:blue;stroke:black;stroke-width:1"/><polygon points="60.0,90.0 66.0,108.0 96.0,108.0 90.0,90.0" style="fill-opacity:0.9;stroke-opacity:0.9;fill:blue;stroke:black;stroke-width:1"/>
<polygon points="90.0,60.0 120.0,60.0 120.0,90.0 90.0,90.0" style="fill-opacity:0.9;stroke-opacity:0.9;fill:blue;stroke:black;stroke-width:1"/><polygon points="120.0,60.0 120.0,90.0 126.0,108.0 126.0,78.0" style="fill-opacity:0.9;stroke-opacity:0.9;fill:blue;stroke:black;stroke-width:1"/><polygon points="90.0,90.0 96.0,108.0 126.0,108.0 120.0,90.0" style="fill-opacity:0.9;stroke-opacity:0.9;fill:blue;stroke:black;stroke-width:1"/>
<polygon points="120.0,60.0 150.0,60.0 150.0,90.0 120.0,90.0" style="fill-opacity:0.9;stroke-opacity:0.9;fill:blue;stroke:black;stroke-width:1"/><polygon points="150.0,60.0 150.0,90.0 156.0,108.0 156.0,78.0" style="fill-opacity:0.9;stroke-opacity:0.9;fill:blue;stroke:black;stroke-width:1"/><polygon points="120.0,90.0 126.0,108.0 156.0,108.0 150.0,90.0" style="fill-opacity:0.9;stroke-opacity:0.9;fill:blue;stroke:black;stroke-width:1"/>
<polygon points="150.0,60.0 180.0,60.0 180.0,90.0 150.0,90.0" style="fill-opacity:0.9;stroke-opacity:0.9;fill:blue;stroke:black;stroke-width:1"/><polygon points="180.0,60.0 180.0,90.0 186.0,108.0 186.0,78.0" style="fill-opacity:0.9;stroke-opacity:0.9;fill:blue;stroke:black;stroke-width:1"/><polygon points="150.0,90.0 156.0,108.0 186.0,108.0 180.0,90.0" style="fill-opacity:0.9;stroke-opacity:0.9;fill:blue;stroke:black;stroke-width:1"/>
<polygon points="180.0,60.0 210.0,60.0 210.0,90.0 180.0,90.0" style="fill-opacity:0.9;stroke-opacity:0.9;fill:blue;stroke:black;stroke-width:1"/><polygon points="210.0,60.0 210.0,90.0 216.0,108.0 216.0,78.0" style="fill-opacity:0.9;stroke-opacity:0.9;fill:blue;stroke:black;stroke-width:1"/><polygon points="180.0,90.0 186.0,108.0 216.0,108.0 210.0,90.0" style="fill-opacity:0.9;stroke-opacity:0.9;fill:blue;stroke:black;stroke-width:1"/>
<polygon points="210.0,60.0 240.0,60.0 240.0,90.0 210.0,90.0" style="fill-opacity:0.9;stroke-opacity:0.9;fill:blue;stroke:black;stroke-width:1"/><polygon points="240.0,60.0 240.0,90.0 246.0,108.0 246.0,78.0" style="fill-opacity:0.9;stroke-opacity:0.9;fill:blue;stroke:black;stroke-width:1"/><polygon points="210.0,90.0 216.0,108.0 246.0,108.0 240.0,90.0" style="fill-opacity:0.9;stroke-opacity:0.9;fill:blue;stroke:black;stroke-width:1"/>
<polygon points="240.0,60.0 270.0,60.0 270.0,90.0 240.0,90.0" style="fill-opacity:0.9;stroke-opacity:0.9;fill:blue;stroke:black;stroke-width:1"/><polygon points="270.0,60.0 270.0,90.0 276.0,108.0 276.0,78.0" style="fill-opacity:0.9;stroke-opacity:0.9;fill:blue;stroke:black;stroke-width:1"/><polygon points="240.0,90.0 246.0,108.0 276.0,108.0 270.0,90.0" style="fill-opacity:0.9;stroke-opacity:0.9;fill:blue;stroke:black;stroke-width:1"/>
<polygon points="270.0,60.0 300.0,60.0 300.0,90.0 270.0,90.0" style="fill-opacity:0.9;stroke-opacity:0.9;fill:blue;stroke:black;stroke-width:1"/><polygon points="300.0,60.0 300.0,90.0 306.0,108.0 306.0,78.0" style="fill-opacity:0.9;stroke-opacity:0.9;fill:blue;stroke:black;stroke-width:1"/><polygon points="270.0,90.0 276.0,108.0 306.0,108.0 300.0,90.0" style="fill-opacity:0.9;stroke-opacity:0.9;fill:blue;stroke:black;stroke-width:1"/>
<polygon points="0.0,90.0 30.0,90.0 30.0,120.0 0.0,120.0" style="fill-opacity:0.9;stroke-opacity:0.9;fill:blue;stroke:black;stroke-width:1"/><polygon points="30.0,90.0 30.0,120.0 36.0,138.0 36.0,108.0" style="fill-opacity:0.9;stroke-opacity:0.9;fill:blue;stroke:black;stroke-width:1"/><polygon points="0.0,120.0 6.0,138.0 36.0,138.0 30.0,120.0" style="fill-opacity:0.9;stroke-opacity:0.9;fill:blue;stroke:black;stroke-width:1"/>
<polygon points="30.0,90.0 60.0,90.0 60.0,120.0 30.0,120.0" style="fill-opacity:0.9;stroke-opacity:0.9;fill:blue;stroke:black;stroke-width:1"/><polygon points="60.0,90.0 60.0,120.0 66.0,138.0 66.0,108.0" style="fill-opacity:0.9;stroke-opacity:0.9;fill:blue;stroke:black;stroke-width:1"/><polygon points="30.0,120.0 36.0,138.0 66.0,138.0 60.0,120.0" style="fill-opacity:0.9;stroke-opacity:0.9;fill:blue;stroke:black;stroke-width:1"/>
<polygon points="60.0,90.0 90.0,90.0 90.0,120.0 60.0,120.0" style="fill-opacity:0.9;stroke-opacity:0.9;fill:blue;stroke:black;stroke-width:1"/><polygon points="90.0,90.0 90.0,120.0 96.0,138.0 96.0,108.0" style="fill-opacity:0.9;stroke-opacity:0.9;fill:blue;stroke:black;stroke-width:1"/><polygon points="60.0,120.0 66.0,138.0 96.0,138.0 90.0,120.0" style="fill-opacity:0.9;stroke-opacity:0.9;fill:blue;stroke:black;stroke-width:1"/>
<polygon points="90.0,90.0 120.0,90.0 120.0,120.0 90.0,120.0" style="fill-opacity:0.9;stroke-opacity:0.9;fill:blue;stroke:black;stroke-width:1"/><polygon points="120.0,90.0 120.0,120.0 126.0,138.0 126.0,108.0" style="fill-opacity:0.9;stroke-opacity:0.9;fill:blue;stroke:black;stroke-width:1"/><polygon points="90.0,120.0 96.0,138.0 126.0,138.0 120.0,120.0" style="fill-opacity:0.9;stroke-opacity:0.9;fill:blue;stroke:black;stroke-width:1"/>
<polygon points="120.0,90.0 150.0,90.0 150.0,120.0 120.0,120.0" style="fill-opacity:0.9;stroke-opacity:0.9;fill:blue;stroke:black;stroke-width:1"/><polygon points="150.0,90.0 150.0,120.0 156.0,138.0 156.0,108.0" style="fill-opacity:0.9;stroke-opacity:0.9;fill:blue;stroke:black;stroke-width:1"/><polygon points="120.0,120.0 126.0,138.0 156.0,138.0 150.0,120.0" style="fill-opacity:0.9;stroke-opacity:0.9;fill:blue;stroke:black;stroke-width:1"/>
<polygon points="150.0,90.0 180.0,90.0 180.0,120.0 150.0,120.0" style="fill-opacity:0.9;stroke-opacity:0.9;fill:blue;stroke:black;stroke-width:1"/><polygon points="180.0,90.0 180.0,120.0 186.0,138.0 186.0,108.0" style="fill-opacity:0.9;stroke-opacity:0.9;fill:blue;stroke:black;stroke-width:1"/><polygon points="150.0,120.0 156.0,138.0 186.0,138.0 180.0,120.0" style="fill-opacity:0.9;stroke-opacity:0.9;fill:blue;stroke:black;stroke-width:1"/>
<polygon points="180.0,90.0 210.0,90.0 210.0,120.0 180.0,120.0" style="fill-opacity:0.9;stroke-opacity:0.9;fill:blue;stroke:black;stroke-width:1"/><polygon points="210.0,90.0 210.0,120.0 216.0,138.0 216.0,108.0" style="fill-opacity:0.9;stroke-opacity:0.9;fill:blue;stroke:black;stroke-width:1"/><polygon points="180.0,120.0 186.0,138.0 216.0,138.0 210.0,120.0" style="fill-opacity:0.9;stroke-opacity:0.9;fill:blue;stroke:black;stroke-width:1"/>
<polygon points="210.0,90.0 240.0,90.0 240.0,120.0 210.0,120.0" style="fill-opacity:0.9;stroke-opacity:0.9;fill:blue;stroke:black;stroke-width:1"/><polygon points="240.0,90.0 240.0,120.0 246.0,138.0 246.0,108.0" style="fill-opacity:0.9;stroke-opacity:0.9;fill:blue;stroke:black;stroke-width:1"/><polygon points="210.0,120.0 216.0,138.0 246.0,138.0 240.0,120.0" style="fill-opacity:0.9;stroke-opacity:0.9;fill:blue;stroke:black;stroke-width:1"/>
<polygon points="240.0,90.0 270.0,90.0 270.0,120.0 240.0,120.0" style="fill-opacity:0.9;stroke-opacity:0.9;fill:blue;stroke:black;stroke-width:1"/><polygon points="270.0,90.0 270.0,120.0 276.0,138.0 276.0,108.0" style="fill-opacity:0.9;stroke-opacity:0.9;fill:blue;stroke:black;stroke-width:1"/><polygon points="240.0,120.0 246.0,138.0 276.0,138.0 270.0,120.0" style="fill-opacity:0.9;stroke-opacity:0.9;fill:blue;stroke:black;stroke-width:1"/>
<polygon points="270.0,90.0 300.0,90.0 300.0,120.0 270.0,120.0" style="fill-opacity:0.9;stroke-opacity:0.9;fill:blue;stroke:black;stroke-width:1"/><polygon points="300.0,90.0 300.0,120.0 306.0,138.0 306.0,108.0" style="fill-opacity:0.9;stroke-opacity:0.9;fill:blue;stroke:black;stroke-width:1"/><polygon points="270.0,120.0 276.0,138.0 306.0,138.0 300.0,120.0" style="fill-opacity:0.9;stroke-opacity:0.9;fill:blue;stroke:black;stroke-width:1"/>
<polygon points="0.0,120.0 30.0,120.0 30.0,150.0 0.0,150.0" style="fill-opacity:0.9;stroke-opacity:0.9;fill:blue;stroke:black;stroke-width:1"/><polygon points="30.0,120.0 30.0,150.0 36.0,168.0 36.0,138.0" style="fill-opacity:0.9;stroke-opacity:0.9;fill:blue;stroke:black;stroke-width:1"/><polygon points="0.0,150.0 6.0,168.0 36.0,168.0 30.0,150.0" style="fill-opacity:0.9;stroke-opacity:0.9;fill:blue;stroke:black;stroke-width:1"/>
<polygon points="30.0,120.0 60.0,120.0 60.0,150.0 30.0,150.0" style="fill-opacity:0.9;stroke-opacity:0.9;fill:blue;stroke:black;stroke-width:1"/><polygon points="60.0,120.0 60.0,150.0 66.0,168.0 66.0,138.0" style="fill-opacity:0.9;stroke-opacity:0.9;fill:blue;stroke:black;stroke-width:1"/><polygon points="30.0,150.0 36.0,168.0 66.0,168.0 60.0,150.0" style="fill-opacity:0.9;stroke-opacity:0.9;fill:blue;stroke:black;stroke-width:1"/>
<polygon points="60.0,120.0 90.0,120.0 90.0,150.0 60.0,150.0" style="fill-opacity:0.9;stroke-opacity:0.9;fill:blue;stroke:black;stroke-width:1"/><polygon points="90.0,120.0 90.0,150.0 96.0,168.0 96.0,138.0" style="fill-opacity:0.9;stroke-opacity:0.9;fill:blue;stroke:black;stroke-width:1"/><polygon points="60.0,150.0 66.0,168.0 96.0,168.0 90.0,150.0" style="fill-opacity:0.9;stroke-opacity:0.9;fill:blue;stroke:black;stroke-width:1"/>
<polygon points="90.0,120.0 120.0,120.0 120.0,150.0 90.0,150.0" style="fill-opacity:0.9;stroke-opacity:0.9;fill:blue;stroke:black;stroke-width:1"/><polygon points="120.0,120.0 120.0,150.0 126.0,168.0 126.0,138.0" style="fill-opacity:0.9;stroke-opacity:0.9;fill:blue;stroke:black;stroke-width:1"/><polygon points="90.0,150.0 96.0,168.0 126.0,168.0 120.0,150.0" style="fill-opacity:0.9;stroke-opacity:0.9;fill:blue;stroke:black;stroke-width:1"/>
<polygon points="120.0,120.0 150.0,120.0 150.0,150.0 120.0,150.0" style="fill-opacity:0.9;stroke-opacity:0.9;fill:blue;stroke:black;stroke-width:1"/><polygon points="150.0,120.0 150.0,150.0 156.0,168.0 156.0,138.0" style="fill-opacity:0.9;stroke-opacity:0.9;fill:blue;stroke:black;stroke-width:1"/><polygon points="120.0,150.0 126.0,168.0 156.0,168.0 150.0,150.0" style="fill-opacity:0.9;stroke-opacity:0.9;fill:blue;stroke:black;stroke-width:1"/>
<polygon points="150.0,120.0 180.0,120.0 180.0,150.0 150.0,150.0" style="fill-opacity:0.9;stroke-opacity:0.9;fill:blue;stroke:black;stroke-width:1"/><polygon points="180.0,120.0 180.0,150.0 186.0,168.0 186.0,138.0" style="fill-opacity:0.9;stroke-opacity:0.9;fill:blue;stroke:black;stroke-width:1"/><polygon points="150.0,150.0 156.0,168.0 186.0,168.0 180.0,150.0" style="fill-opacity:0.9;stroke-opacity:0.9;fill:blue;stroke:black;stroke-width:1"/>
<polygon points="180.0,120.0 210.0,120.0 210.0,150.0 180.0,150.0" style="fill-opacity:0.9;stroke-opacity:0.9;fill:blue;stroke:black;stroke-width:1"/><polygon points="210.0,120.0 210.0,150.0 216.0,168.0 216.0,138.0" style="fill-opacity:0.9;stroke-opacity:0.9;fill:blue;stroke:black;stroke-width:1"/><polygon points="180.0,150.0 186.0,168.0 216.0,168.0 210.0,150.0" style="fill-opacity:0.9;stroke-opacity:0.9;fill:blue;stroke:black;stroke-width:1"/>
<polygon points="210.0,120.0 240.0,120.0 240.0,150.0 210.0,150.0" style="fill-opacity:0.9;stroke-opacity:0.9;fill:blue;stroke:black;stroke-width:1"/><polygon points="240.0,120.0 240.0,150.0 246.0,168.0 246.0,138.0" style="fill-opacity:0.9;stroke-opacity:0.9;fill:blue;stroke:black;stroke-width:1"/><polygon points="210.0,150.0 216.0,168.0 246.0,168.0 240.0,150.0" style="fill-opacity:0.9;stroke-opacity:0.9;fill:blue;stroke:black;stroke-width:1"/>
<polygon points="240.0,120.0 270.0,120.0 270.0,150.0 240.0,150.0" style="fill-opacity:0.9;stroke-opacity:0.9;fill:blue;stroke:black;stroke-width:1"/><polygon points="270.0,120.0 270.0,150.0 276.0,168.0 276.0,138.0" style="fill-opacity:0.9;stroke-opacity:0.9;fill:blue;stroke:black;stroke-width:1"/><polygon points="240.0,150.0 246.0,168.0 276.0,168.0 270.0,150.0" style="fill-opacity:0.9;stroke-opacity:0.9;fill:blue;stroke:black;stroke-width:1"/>
<polygon points="270.0,120.0 300.0,120.0 300.0,150.0 270.0,150.0" style="fill-opacity:0.9;stroke-opacity:0.9;fill:blue;stroke:black;stroke-width:1"/><polygon points="300.0,120.0 300.0,150.0 306.0,168.0 306.0,138.0" style="fill-opacity:0.9;stroke-opacity:0.9;fill:blue;stroke:black;stroke-width:1"/><polygon points="270.0,150.0 276.0,168.0 306.0,168.0 300.0,150.0" style="fill-opacity:0.9;stroke-opacity:0.9;fill:blue;stroke:black;stroke-width:1"/>
<polygon points="0.0,150.0 30.0,150.0 30.0,180.0 0.0,180.0" style="fill-opacity:0.9;stroke-opacity:0.9;fill:white;stroke:black;stroke-width:1"/><polygon points="30.0,150.0 30.0,180.0 33.0,189.0 33.0,159.0" style="fill-opacity:0.9;stroke-opacity:0.9;fill:white;stroke:black;stroke-width:1"/><polygon points="0.0,180.0 3.0,189.0 33.0,189.0 30.0,180.0" style="fill-opacity:0.9;stroke-opacity:0.9;fill:white;stroke:black;stroke-width:1"/>
<polygon points="30.0,150.0 60.0,150.0 60.0,180.0 30.0,180.0" style="fill-opacity:0.9;stroke-opacity:0.9;fill:white;stroke:black;stroke-width:1"/><polygon points="60.0,150.0 60.0,180.0 63.0,189.0 63.0,159.0" style="fill-opacity:0.9;stroke-opacity:0.9;fill:white;stroke:black;stroke-width:1"/><polygon points="30.0,180.0 33.0,189.0 63.0,189.0 60.0,180.0" style="fill-opacity:0.9;stroke-opacity:0.9;fill:white;stroke:black;stroke-width:1"/>
<polygon points="60.0,150.0 90.0,150.0 90.0,180.0 60.0,180.0" style="fill-opacity:0.9;stroke-opacity:0.9;fill:white;stroke:black;stroke-width:1"/><polygon points="90.0,150.0 90.0,180.0 93.0,189.0 93.0,159.0" style="fill-opacity:0.9;stroke-opacity:0.9;fill:white;stroke:black;stroke-width:1"/><polygon points="60.0,180.0 63.0,189.0 93.0,189.0 90.0,180.0" style="fill-opacity:0.9;stroke-opacity:0.9;fill:white;stroke:black;stroke-width:1"/>
<polygon points="90.0,150.0 120.0,150.0 120.0,180.0 90.0,180.0" style="fill-opacity:0.9;stroke-opacity:0.9;fill:white;stroke:black;stroke-width:1"/><polygon points="120.0,150.0 120.0,180.0 123.0,189.0 123.0,159.0" style="fill-opacity:0.9;stroke-opacity:0.9;fill:white;stroke:black;stroke-width:1"/><polygon points="90.0,180.0 93.0,189.0 123.0,189.0 120.0,180.0" style="fill-opacity:0.9;stroke-opacity:0.9;fill:white;stroke:black;stroke-width:1"/>
<polygon points="120.0,150.0 150.0,150.0 150.0,180.0 120.0,180.0" style="fill-opacity:0.9;stroke-opacity:0.9;fill:white;stroke:black;stroke-width:1"/><polygon points="150.0,150.0 150.0,180.0 153.0,189.0 153.0,159.0" style="fill-opacity:0.9;stroke-opacity:0.9;fill:white;stroke:black;stroke-width:1"/><polygon points="120.0,180.0 123.0,189.0 153.0,189.0 150.0,180.0" style="fill-opacity:0.9;stroke-opacity:0.9;fill:white;stroke:black;stroke-width:1"/>
<polygon points="150.0,150.0 180.0,150.0 180.0,180.0 150.0,180.0" style="fill-opacity:0.9;stroke-opacity:0.9;fill:white;stroke:black;stroke-width:1"/><polygon points="180.0,150.0 180.0,180.0 183.0,189.0 183.0,159.0" style="fill-opacity:0.9;stroke-opacity:0.9;fill:white;stroke:black;stroke-width:1"/><polygon points="150.0,180.0 153.0,189.0 183.0,189.0 180.0,180.0" style="fill-opacity:0.9;stroke-opacity:0.9;fill:white;stroke:black;stroke-width:1"/>
<polygon points="180.0,150.0 210.0,150.0 210.0,180.0 180.0,180.0" style="fill-opacity:0.9;stroke-opacity:0.9;fill:white;stroke:black;stroke-width:1"/><polygon points="210.0,150.0 210.0,180.0 213.0,189.0 213.0,159.0" style="fill-opacity:0.9;stroke-opacity:0.9;fill:white;stroke:black;stroke-width:1"/><polygon points="180.0,180.0 183.0,189.0 213.0,189.0 210.0,180.0" style="fill-opacity:0.9;stroke-opacity:0.9;fill:white;stroke:black;stroke-width:1"/>
<polygon points="210.0,150.0 240.0,150.0 240.0,180.0 210.0,180.0" style="fill-opacity:0.9;stroke-opacity:0.9;fill:white;stroke:black;stroke-width:1"/><polygon points="240.0,150.0 240.0,180.0 243.0,189.0 243.0,159.0" style="fill-opacity:0.9;stroke-opacity:0.9;fill:white;stroke:black;stroke-width:1"/><polygon points="210.0,180.0 213.0,189.0 243.0,189.0 240.0,180.0" style="fill-opacity:0.9;stroke-opacity:0.9;fill:white;stroke:black;stroke-width:1"/>
<polygon points="240.0,150.0 270.0,150.0 270.0,180.0 240.0,180.0" style="fill-opacity:0.9;stroke-opacity:0.9;fill:white;stroke:black;stroke-width:1"/><polygon points="270.0,150.0 270.0,180.0 273.0,189.0 273.0,159.0" style="fill-opacity:0.9;stroke-opacity:0.9;fill:white;stroke:black;stroke-width:1"/><polygon points="240.0,180.0 243.0,189.0 273.0,189.0 270.0,180.0" style="fill-opacity:0.9;stroke-opacity:0.9;fill:white;stroke:black;stroke-width:1"/>
<polygon points="270.0,150.0 300.0,150.0 300.0,180.0 270.0,180.0" style="fill-opacity:0.9;stroke-opacity:0.9;fill:white;stroke:black;stroke-width:1"/><polygon points="300.0,150.0 300.0,180.0 303.0,189.0 303.0,159.0" style="fill-opacity:0.9;stroke-opacity:0.9;fill:white;stroke:black;stroke-width:1"/><polygon points="270.0,180.0 273.0,189.0 303.0,189.0 300.0,180.0" style="fill-opacity:0.9;stroke-opacity:0.9;fill:white;stroke:black;stroke-width:1"/>
<circle cx="15.0" cy="15.0" r="10.0" style="fill-opacity:0.9;stroke-opacity:0.9;fill:red;stroke:none;stroke-width:1"/>
<circle cx="45.0" cy="15.0" r="10.0" style="fill-opacity:0.9;stroke-opacity:0.9;fill:red;stroke:none;stroke-width:1"/>
<circle cx="75.0" cy="15.0" r="10.0" style="fill-opacity:0.9;stroke-opacity:0.9;fill:red;stroke:none;stroke-width:1"/>
<circle cx="105.0" cy="15.0" r="10.0" style="fill-opacity:0.9;stroke-opacity:0.9;fill:red;stroke:none;stroke-width:1"/>
<line x1="120.0" y1="15.0" x2="150.0" y2="15.0" style="stroke:white;stroke-width:2"/>
<line x1="120.0" y1="15.0" x2="135.0" y2="0.0" style="stroke:white;stroke-width:2"/>
<line x1="120.0" y1="15.0" x2="135.0" y2="30.0" style="stroke:white;stroke-width:2"/>
<circle cx="165.0" cy="15.0" r="10.0" style="fill-opacity:0.9;stroke-opacity:0.9;fill:red;stroke:none;stroke-width:1"/>
<circle cx="195.0" cy="15.0" r="10.0" style="fill-opacity:0.9;stroke-opacity:0.9;fill:red;stroke:none;stroke-width:1"/>
<circle cx="75.0" cy="45.0" r="10.0" style="fill-opacity:0.9;stroke-opacity:0.9;fill:red;stroke:none;stroke-width:1"/>
<circle cx="195.0" cy="45.0" r="10.0" style="fill-opacity:0.9;stroke-opacity:0.9;fill:red;stroke:none;stroke-width:1"/>
<line x1="75.0" y1="90.0" x2="75.0" y2="60.0" style="stroke:white;stroke-width:2"/>
<line x1="75.0" y1="90.0" x2="60.0" y2="75.0" style="stroke:white;stroke-width:2"/>
<line x1="75.0" y1="90.0" x2="90.0" y2="75.0" style="stroke:white;stroke-width:2"/>
<line x1="195.0" y1="60.0" x2="195.0" y2="90.0" style="stroke:white;stroke-width:2"/>
<line x1="195.0" y1="60.0" x2="210.0" y2="75.0" style="stroke:white;stroke-width:2"/>
<line x1="195.0" y1="60.0" x2="180.0" y2="75.0" style="stroke:white;stroke-width:2"/>
<circle cx="75.0" cy="105.0" r="10.0" style="fill-opacity:0.9;stroke-opacity:0.9;fill:red;stroke:none;stroke-width:1"/>
<circle cx="195.0" cy="105.0" r="10.0" style="fill-opacity:0.9;stroke-opacity:0.9;fill:red;stroke:none;stroke-width:1"/>
<circle cx="75.0" cy="135.0" r="10.0" style="fill-opacity:0.9;stroke-opacity:0.9;fill:red;stroke:none;stroke-width:1"/>
<circle cx="105.0" cy="135.0" r="10.0" style="fill-opacity:0.9;stroke-opacity:0.9;fill:red;stroke:none;stroke-width:1"/>
<line x1="150.0" y1="135.0" x2="120.0" y2="135.0" style="stroke:white;stroke-width:2"/>
<line x1="150.0" y1="135.0" x2="135.0" y2="150.0" style="stroke:white;stroke-width:2"/>
<line x1="150.0" y1="135.0" x2="135.0" y2="120.0" style="stroke:white;stroke-width:2"/>
<circle cx="165.0" cy="135.0" r="10.0" style="fill-opacity:0.9;stroke-opacity:0.9;fill:red;stroke:none;stroke-width:1"/>
<circle cx="195.0" cy="135.0" r="10.0" style="fill-opacity:0.9;stroke-opacity:0.9;fill:red;stroke:none;stroke-width:1"/>
</g></svg>