<svg xmlns="http://www.w3.org/2000/svg" version="1.1" width="210px" height="414px"><defs><linearGradient id="lamp" x1="0%" y1="0%" x2="100%" y2="0%"><stop offset="0%" style="stop-color:yellow"/><stop offset="100%" style="stop-color:red"/></linearGradient></defs><g transform="translate(144,294)"><polygon points="6.0,18.0 36.0,18.0 36.0,48.0 6.0,48.0" style="fill-opacity:0.9;stroke-opacity:0.9;fill:white;stroke:black;stroke-width:1"/><polygon points="36.0,18.0 36.0,48.0 39.0,57.0 39.0,27.0" style="fill-opacity:0.9;stroke-opacity:0.9;fill:white;stroke:black;stroke-width:1"/><polygon points="6.0,48.0 9.0,57.0 39.0,57.0 36.0,48.0" style="fill-opacity:0.9;stroke-opacity:0.9;fill:white;stroke:black;stroke-width:1"/>
<polygon points="6.0,48.0 36.0,48.0 36.0,78.0 6.0,78.0" style="fill-opacity:0.9;stroke-opacity:0.9;fill:white;stroke:black;stroke-width:1"/><polygon points="36.0,48.0 36.0,78.0 39.0,87.0 39.0,57.0" style="fill-opacity:0.9;stroke-opacity:0.9;fill:white;stroke:black;stroke-width:1"/><polygon points="6.0,78.0 9.0,87.0 39.0,87.0 36.0,78.0" style="fill-opacity:0.9;stroke-opacity:0.9;fill:white;stroke:black;stroke-width:1"/>
<circle cx="21" cy="63" r="10" style="fill-opacity:0.9;stroke-opacity:0.9;fill:red;stroke:none;stroke-width:1"/>
<polygon points="0.0,60.0 30.0,60.0 30.0,90.0 0.0,90.0" style="fill-opacity:0.9;stroke-opacity:0.9;fill:white;stroke:black;stroke-width:1"/><polygon points="30.0,60.0 30.0,90.0 33.0,99.0 33.0,69.0" style="fill-opacity:0.9;stroke-opacity:0.9;fill:white;stroke:black;stroke-width:1"/><polygon points="0.0,90.0 3.0,99.0 33.0,99.0 30.0,90.0" style="fill-opacity:0.9;stroke-opacity:0.9;fill:white;stroke:black;stroke-width:1"/>
<polygon points="-6.0,-18.0 24.0,-18.0 24.0,12.0 -6.0,12.0" style="fill-opacity:0.9;stroke-opacity:0.9;fill:white;stroke:black;stroke-width:1"/><polygon points="24.0,-18.0 24.0,12.0 27.0,21.0 27.0,-9.0" style="fill-opacity:0.9;stroke-opacity:0.9;fill:white;stroke:black;stroke-width:1"/><polygon points="-6.0,12.0 -3.0,21.0 27.0,21.0 24.0,12.0" style="fill-opacity:0.9;stroke-opacity:0.9;fill:white;stroke:black;stroke-width:1"/>
<polygon points="-6.0,12.0 24.0,12.0 24.0,42.0 -6.0,42.0" style="fill-opacity:0.9;stroke-opacity:0.9;fill:white;stroke:black;stroke-width:1"/><polygon points="24.0,12.0 24.0,42.0 27.0,51.0 27.0,21.0" style="fill-opacity:0.9;stroke-opacity:0.9;fill:white;stroke:black;stroke-width:1"/><polygon points="-6.0,42.0 -3.0,51.0 27.0,51.0 24.0,42.0" style="fill-opacity:0.9;stroke-opacity:0.9;fill:white;stroke:black;stroke-width:1"/>
<circle cx="15" cy="75" r="10" style="fill-opacity:0.9;stroke-opacity:0.9;fill:red;stroke:none;stroke-width:1"/>
<circle cx="9" cy="27" r="10" style="fill-opacity:0.9;stroke-opacity:0.9;fill:red;stroke:none;stroke-width:1"/>
<polygon points="-12.0,24.0 18.0,24.0 18.0,54.0 -12.0,54.0" style="fill-opacity:0.9;stroke-opacity:0.9;fill:white;stroke:black;stroke-width:1"/><polygon points="18.0,24.0 18.0,54.0 21.0,63.0 21.0,33.0" style="fill-opacity:0.9;stroke-opacity:0.9;fill:white;stroke:black;stroke-width:1"/><polygon points="-12.0,54.0 -9.0,63.0 21.0,63.0 18.0,54.0" style="fill-opacity:0.9;stroke-opacity:0.9;fill:white;stroke:black;stroke-width:1"/>
<polygon points="-18.0,-54.0 12.0,-54.0 12.0,-24.0 -18.0,-24.0" style="fill-opacity:0.9;stroke-opacity:0.9;fill:white;stroke:black;stroke-width:1"/><polygon points="12.0,-54.0 12.0,-24.0 15.0,-15.0 15.0,-45.0" style="fill-opacity:0.9;stroke-opacity:0.9;fill:white;stroke:black;stroke-width:1"/><polygon points="-18.0,-24.0 -15.0,-15.0 15.0,-15.0 12.0,-24.0" style="fill-opacity:0.9;stroke-opacity:0.9;fill:white;stroke:black;stroke-width:1"/>
<polygon points="-18.0,-24.0 12.0,-24.0 12.0,6.0 -18.0,6.0" style="fill-opacity:0.9;stroke-opacity:0.9;fill:white;stroke:black;stroke-width:1"/><polygon points="12.0,-24.0 12.0,6.0 15.0,15.0 15.0,-15.0" style="fill-opacity:0.9;stroke-opacity:0.9;fill:white;stroke:black;stroke-width:1"/><polygon points="-18.0,6.0 -15.0,15.0 15.0,15.0 12.0,6.0" style="fill-opacity:0.9;stroke-opacity:0.9;fill:white;stroke:black;stroke-width:1"/>
<circle cx="3" cy="39" r="10" style="fill-opacity:0.9;stroke-opacity:0.9;fill:red;stroke:none;stroke-width:1"/>
<circle cx="-3" cy="-9" r="10" style="fill-opacity:0.9;stroke-opacity:0.9;fill:red;stroke:none;stroke-width:1"/>
<polygon points="-24.0,-12.0 6.0,-12.0 6.0,18.0 -24.0,18.0" style="fill-opacity:0.9;stroke-opacity:0.9;fill:white;stroke:black;stroke-width:1"/><polygon points="6.0,-12.0 6.0,18.0 9.0,27.0 9.0,-3.0" style="fill-opacity:0.9;stroke-opacity:0.9;fill:white;stroke:black;stroke-width:1"/><polygon points="-24.0,18.0 -21.0,27.0 9.0,27.0 6.0,18.0" style="fill-opacity:0.9;stroke-opacity:0.9;fill:white;stroke:black;stroke-width:1"/>
<polygon points="-30.0,-90.0 0.0,-90.0 0.0,-60.0 -30.0,-60.0" style="fill-opacity:0.9;stroke-opacity:0.9;fill:white;stroke:black;stroke-width:1"/><polygon points="0.0,-90.0 0.0,-60.0 3.0,-51.0 3.0,-81.0" style="fill-opacity:0.9;stroke-opacity:0.9;fill:white;stroke:black;stroke-width:1"/><polygon points="-30.0,-60.0 -27.0,-51.0 3.0,-51.0 0.0,-60.0" style="fill-opacity:0.9;stroke-opacity:0.9;fill:white;stroke:black;stroke-width:1"/>
<polygon points="-30.0,-60.0 0.0,-60.0 0.0,-30.0 -30.0,-30.0" style="fill-opacity:0.9;stroke-opacity:0.9;fill:white;stroke:black;stroke-width:1"/><polygon points="0.0,-60.0 0.0,-30.0 3.0,-21.0 3.0,-51.0" style="fill-opacity:0.9;stroke-opacity:0.9;fill:white;stroke:black;stroke-width:1"/><polygon points="-30.0,-30.0 -27.0,-21.0 3.0,-21.0 0.0,-30.0" style="fill-opacity:0.9;stroke-opacity:0.9;fill:white;stroke:black;stroke-width:1"/>
<circle cx="-9" cy="3" r="10" style="fill-opacity:0.9;stroke-opacity:0.9;fill:red;stroke:none;stroke-width:1"/>
<circle cx="-15" cy="-45" r="10" style="fill-opacity:0.9;stroke-opacity:0.9;fill:red;stroke:none;stroke-width:1"/>
<polygon points="-36.0,-48.0 -6.0,-48.0 -6.0,-18.0 -36.0,-18.0" style="fill-opacity:0.9;stroke-opacity:0.9;fill:white;stroke:black;stroke-width:1"/><polygon points="-6.0,-48.0 -6.0,-18.0 -3.0,-9.0 -3.0,-39.0" style="fill-opacity:0.9;stroke-opacity:0.9;fill:white;stroke:black;stroke-width:1"/><polygon points="-36.0,-18.0 -33.0,-9.0 -3.0,-9.0 -6.0,-18.0" style="fill-opacity:0.9;stroke-opacity:0.9;fill:white;stroke:black;stroke-width:1"/>
<polygon points="-42.0,-126.0 -12.0,-126.0 -12.0,-96.0 -42.0,-96.0" style="fill-opacity:0.9;stroke-opacity:0.9;fill:white;stroke:black;stroke-width:1"/><polygon points="-12.0,-126.0 -12.0,-96.0 -9.0,-87.0 -9.0,-117.0" style="fill-opacity:0.9;stroke-opacity:0.9;fill:white;stroke:black;stroke-width:1"/><polygon points="-42.0,-96.0 -39.0,-87.0 -9.0,-87.0 -12.0,-96.0" style="fill-opacity:0.9;stroke-opacity:0.9;fill:white;stroke:black;stroke-width:1"/>
<polygon points="-42.0,-96.0 -12.0,-96.0 -12.0,-66.0 -42.0,-66.0" style="fill-opacity:0.9;stroke-opacity:0.9;fill:white;stroke:black;stroke-width:1"/><polygon points="-12.0,-96.0 -12.0,-66.0 -9.0,-57.0 -9.0,-87.0" style="fill-opacity:0.9;stroke-opacity:0.9;fill:white;stroke:black;stroke-width:1"/><polygon points="-42.0,-66.0 -39.0,-57.0 -9.0,-57.0 -12.0,-66.0" style="fill-opacity:0.9;stroke-opacity:0.9;fill:white;stroke:black;stroke-width:1"/>
<circle cx="-21" cy="-33" r="10" style="fill-opacity:0.9;stroke-opacity:0.9;fill:red;stroke:none;stroke-width:1"/>
<circle cx="-27" cy="-81" r="10" style="fill-opacity:0.9;stroke-opacity:0.9;fill:red;stroke:none;stroke-width:1"/>
<polygon points="-48.0,-84.0 -18.0,-84.0 -18.0,-54.0 -48.0,-54.0" style="fill-opacity:0.9;stroke-opacity:0.9;fill:white;stroke:black;stroke-width:1"/><polygon points="-18.0,-84.0 -18.0,-54.0 -15.0,-45.0 -15.0,-75.0" style="fill-opacity:0.9;stroke-opacity:0.9;fill:white;stroke:black;stroke-width:1"/><polygon points="-48.0,-54.0 -45.0,-45.0 -15.0,-45.0 -18.0,-54.0" style="fill-opacity:0.9;stroke-opacity:0.9;fill:white;stroke:black;stroke-width:1"/>
<polygon points="-54.0,-162.0 -24.0,-162.0 -24.0,-132.0 -54.0,-132.0" style="fill-opacity:0.9;stroke-opacity:0.9;fill:white;stroke:black;stroke-width:1"/><polygon points="-24.0,-162.0 -24.0,-132.0 -21.0,-123.0 -21.0,-153.0" style="fill-opacity:0.9;stroke-opacity:0.9;fill:white;stroke:black;stroke-width:1"/><polygon points="-54.0,-132.0 -51.0,-123.0 -21.0,-123.0 -24.0,-132.0" style="fill-opacity:0.9;stroke-opacity:0.9;fill:white;stroke:black;stroke-width:1"/>
<polygon points="-54.0,-132.0 -24.0,-132.0 -24.0,-102.0 -54.0,-102.0" style="fill-opacity:0.9;stroke-opacity:0.9;fill:white;stroke:black;stroke-width:1"/><polygon points="-24.0,-132.0 -24.0,-102.0 -21.0,-93.0 -21.0,-123.0" style="fill-opacity:0.9;stroke-opacity:0.9;fill:white;stroke:black;stroke-width:1"/><polygon points="-54.0,-102.0 -51.0,-93.0 -21.0,-93.0 -24.0,-102.0" style="fill-opacity:0.9;stroke-opacity:0.9;fill:white;stroke:black;stroke-width:1"/>
<circle cx="-33" cy="-69" r="10" style="fill-opacity:0.9;stroke-opacity:0.9;fill:red;stroke:none;stroke-width:1"/>
<circle cx="-39" cy="-117" r="10" style="fill-opacity:0.9;stroke-opacity:0.9;fill:red;stroke:none;stroke-width:1"/>
<polygon points="-60.0,-120.0 -30.0,-120.0 -30.0,-90.0 -60.0,-90.0" style="fill-opacity:0.9;stroke-opacity:0.9;fill:white;stroke:black;stroke-width:1"/><polygon points="-30.0,-120.0 -30.0,-90.0 -27.0,-81.0 -27.0,-111.0" style="fill-opacity:0.9;stroke-opacity:0.9;fill:white;stroke:black;stroke-width:1"/><polygon points="-60.0,-90.0 -57.0,-81.0 -27.0,-81.0 -30.0,-90.0" style="fill-opacity:0.9;stroke-opacity:0.9;fill:white;stroke:black;stroke-width:1"/>
<polygon points="-66.0,-198.0 -36.0,-198.0 -36.0,-168.0 -66.0,-168.0" style="fill-opacity:0.9;stroke-opacity:0.9;fill:white;stroke:black;stroke-width:1"/><polygon points="-36.0,-198.0 -36.0,-168.0 -33.0,-159.0 -33.0,-189.0" style="fill-opacity:0.9;stroke-opacity:0.9;fill:white;stroke:black;stroke-width:1"/><polygon points="-66.0,-168.0 -63.0,-159.0 -33.0,-159.0 -36.0,-168.0" style="fill-opacity:0.9;stroke-opacity:0.9;fill:white;stroke:black;stroke-width:1"/>
<polygon points="-66.0,-168.0 -36.0,-168.0 -36.0,-138.0 -66.0,-138.0" style="fill-opacity:0.9;stroke-opacity:0.9;fill:white;stroke:black;stroke-width:1"/><polygon points="-36.0,-168.0 -36.0,-138.0 -33.0,-129.0 -33.0,-159.0" style="fill-opacity:0.9;stroke-opacity:0.9;fill:white;stroke:black;stroke-width:1"/><polygon points="-66.0,-138.0 -63.0,-129.0 -33.0,-129.0 -36.0,-138.0" style="fill-opacity:0.9;stroke-opacity:0.9;fill:white;stroke:black;stroke-width:1"/>
<circle cx="-45" cy="-105" r="10" style="fill-opacity:0.9;stroke-opacity:0.9;fill:red;stroke:none;stroke-width:1"/>
<circle cx="-51" cy="-153" r="10" style="fill-opacity:0.9;stroke-opacity:0.9;fill:red;stroke:none;stroke-width:1"/>
<polygon points="-72.0,-156.0 -42.0,-156.0 -42.0,-126.0 -72.0,-126.0" style="fill-opacity:0.9;stroke-opacity:0.9;fill:white;stroke:black;stroke-width:1"/><polygon points="-42.0,-156.0 -42.0,-126.0 -39.0,-117.0 -39.0,-147.0" style="fill-opacity:0.9;stroke-opacity:0.9;fill:white;stroke:black;stroke-width:1"/><polygon points="-72.0,-126.0 -69.0,-117.0 -39.0,-117.0 -42.0,-126.0" style="fill-opacity:0.9;stroke-opacity:0.9;fill:white;stroke:black;stroke-width:1"/>
<polygon points="-78.0,-234.0 -48.0,-234.0 -48.0,-204.0 -78.0,-204.0" style="fill-opacity:0.9;stroke-opacity:0.9;fill:white;stroke:black;stroke-width:1"/><polygon points="-48.0,-234.0 -48.0,-204.0 -45.0,-195.0 -45.0,-225.0" style="fill-opacity:0.9;stroke-opacity:0.9;fill:white;stroke:black;stroke-width:1"/><polygon points="-78.0,-204.0 -75.0,-195.0 -45.0,-195.0 -48.0,-204.0" style="fill-opacity:0.9;stroke-opacity:0.9;fill:white;stroke:black;stroke-width:1"/>
<polygon points="-78.0,-204.0 -48.0,-204.0 -48.0,-174.0 -78.0,-174.0" style="fill-opacity:0.9;stroke-opacity:0.9;fill:white;stroke:black;stroke-width:1"/><polygon points="-48.0,-204.0 -48.0,-174.0 -45.0,-165.0 -45.0,-195.0" style="fill-opacity:0.9;stroke-opacity:0.9;fill:white;stroke:black;stroke-width:1"/><polygon points="-78.0,-174.0 -75.0,-165.0 -45.0,-165.0 -48.0,-174.0" style="fill-opacity:0.9;stroke-opacity:0.9;fill:white;stroke:black;stroke-width:1"/>
<polygon points="-48.0,-204.0 -18.0,-204.0 -18.0,-174.0 -48.0,-174.0" style="fill-opacity:0.9;stroke-opacity:0.9;fill:blue;stroke:black;stroke-width:1"/><polygon points="-18.0,-204.0 -18.0,-174.0 -12.0,-156.0 -12.0,-186.0" style="fill-opacity:0.9;stroke-opacity:0.9;fill:blue;stroke:black;stroke-width:1"/><polygon points="-48.0,-174.0 -42.0,-156.0 -12.0,-156.0 -18.0,-174.0" style="fill-opacity:0.9;stroke-opacity:0.9;fill:blue;stroke:black;stroke-width:1"/>
<circle cx="-57" cy="-141" r="10" style="fill-opacity:0.9;stroke-opacity:0.9;fill:red;stroke:none;stroke-width:1"/>
<circle cx="-63" cy="-189" r="10" style="fill-opacity:0.9;stroke-opacity:0.9;fill:red;stroke:none;stroke-width:1"/>
</g></svg>